<?xml version="1.0" encoding="UTF-8" standalone="no"?>
<!-- Created with Inkscape (http://www.inkscape.org/) -->
<svg
   xmlns:dc="http://purl.org/dc/elements/1.1/"
   xmlns:cc="http://web.resource.org/cc/"
   xmlns:rdf="http://www.w3.org/1999/02/22-rdf-syntax-ns#"
   xmlns:svg="http://www.w3.org/2000/svg"
   xmlns="http://www.w3.org/2000/svg"
   xmlns:sodipodi="http://sodipodi.sourceforge.net/DTD/sodipodi-0.dtd"
   xmlns:inkscape="http://www.inkscape.org/namespaces/inkscape"
   width="210mm"
   height="297mm"
   id="svg2"
   sodipodi:version="0.32"
   inkscape:version="0.45.1"
   sodipodi:docbase="C:\"
   sodipodi:docname="dessin.svg"
   inkscape:output_extension="org.inkscape.output.svg.inkscape">
  <defs
     id="defs4">
    <marker
       inkscape:stockid="Arrow1Lstart"
       orient="auto"
       refY="0.0"
       refX="0.0"
       id="Arrow1Lstart"
       style="overflow:visible">
      <path
         id="path3156"
         d="M 0.0,0.0 L 5.0,-5.0 L -12.5,0.0 L 5.0,5.0 L 0.0,0.0 z "
         style="fill-rule:evenodd;stroke:#000000;stroke-width:1.0pt;marker-start:none"
         transform="scale(0.8) translate(12.5,0)" />
    </marker>
    <marker
       inkscape:stockid="Tail"
       orient="auto"
       refY="0.0"
       refX="0.0"
       id="Tail"
       style="overflow:visible">
      <g
         id="g3192"
         transform="scale(-1.2)">
        <path
           id="path3194"
           d="M -3.8048674,-3.9585227 L 0.54352094,0"
           style="fill:none;fill-rule:evenodd;stroke:#000000;stroke-width:0.8;marker-start:none;marker-end:none;stroke-linecap:round" />
        <path
           id="path3196"
           d="M -1.2866832,-3.9585227 L 3.0617053,0"
           style="fill:none;fill-rule:evenodd;stroke:#000000;stroke-width:0.8;marker-start:none;marker-end:none;stroke-linecap:round" />
        <path
           id="path3198"
           d="M 1.3053582,-3.9585227 L 5.6537466,0"
           style="fill:none;fill-rule:evenodd;stroke:#000000;stroke-width:0.8;marker-start:none;marker-end:none;stroke-linecap:round" />
        <path
           id="path3200"
           d="M -3.8048674,4.1775838 L 0.54352094,0.21974226"
           style="fill:none;fill-rule:evenodd;stroke:#000000;stroke-width:0.8;marker-start:none;marker-end:none;stroke-linecap:round" />
        <path
           id="path3202"
           d="M -1.2866832,4.1775838 L 3.0617053,0.21974226"
           style="fill:none;fill-rule:evenodd;stroke:#000000;stroke-width:0.8;marker-start:none;marker-end:none;stroke-linecap:round" />
        <path
           id="path3204"
           d="M 1.3053582,4.1775838 L 5.6537466,0.21974226"
           style="fill:none;fill-rule:evenodd;stroke:#000000;stroke-width:0.8;marker-start:none;marker-end:none;stroke-linecap:round" />
      </g>
    </marker>
  </defs>
  <sodipodi:namedview
     id="base"
     pagecolor="#ffffff"
     bordercolor="#666666"
     borderopacity="1.0"
     inkscape:pageopacity="0.0"
     inkscape:pageshadow="2"
     inkscape:zoom="0.7"
     inkscape:cx="375"
     inkscape:cy="634.28571"
     inkscape:document-units="px"
     inkscape:current-layer="layer1"
     inkscape:window-width="1680"
     inkscape:window-height="997"
     inkscape:window-x="-8"
     inkscape:window-y="-8" />
  <metadata
     id="metadata7">
    <rdf:RDF>
      <cc:Work
         rdf:about="">
        <dc:format>image/svg+xml</dc:format>
        <dc:type
           rdf:resource="http://purl.org/dc/dcmitype/StillImage" />
      </cc:Work>
    </rdf:RDF>
  </metadata>
  <g
     inkscape:label="Calque 1"
     inkscape:groupmode="layer"
     id="layer1">
    <path
       sodipodi:type="arc"
       style="fill:#f1b58d;fill-opacity:1;stroke:none"
       id="path2178"
       sodipodi:cx="300"
       sodipodi:cy="283.79074"
       sodipodi:rx="234.28572"
       sodipodi:ry="185.71428"
       d="M 534.28572 283.79074 A 234.28572 185.71428 0 1 1  65.714279,283.79074 A 234.28572 185.71428 0 1 1  534.28572 283.79074 z"
       transform="matrix(0.6646341,0,0,0.3461538,10.609753,49.841209)" />
    <rect
       style="fill:#f1b58d;fill-opacity:1;stroke:#000000;stroke-opacity:1;stroke-width:9.00000038;stroke-miterlimit:4.0999999;stroke-dasharray:none;stroke-dashoffset:0;stroke-linecap:butt;stroke-linejoin:miter;opacity:1"
       id="rect2180"
       width="527.14288"
       height="200"
       x="65.714287"
       y="320.93362" />
    <path
       style="opacity:1;fill:#f1b58d;fill-opacity:1;stroke:#000000;stroke-width:9;stroke-linecap:butt;stroke-linejoin:miter;stroke-miterlimit:4.0999999;stroke-dasharray:none;stroke-dashoffset:0;stroke-opacity:1"
       id="path3427"
       d="M 370.26152,58.807495 C 376.45102,56.279231 411.94693,65.26089 418.76831,64.113523 C 427.97878,62.894661 364.51083,12.210795 505.30978,34.349717 C 569.41933,44.755078 482.19088,85.718836 492.41194,86.320767 C 501.45603,86.401131 510.60288,88.549606 519.75488,90.841546 C 526.43957,92.361675 532.9271,94.979146 539.42887,97.670789 C 545.44037,100.37984 550.57311,104.36684 555.64931,108.68228 C 560.40555,112.57637 564.86908,116.72358 569.1777,121.09165 C 573.30085,125.37629 576.53657,130.08966 579.58071,135.00361 C 582.46776,139.89101 584.58208,144.97419 586.52926,150.09422 C 588.09377,154.56121 589.39274,159.05632 590.72566,163.54523 C 592.18215,167.96955 593.25314,172.39834 594.33478,176.83127 C 595.64295,188.51663 589.5011,186.86357 577.98666,195.74516 C 575.2053,196.70869 572.64325,195.58827 569.68957,194.73251 C 566.2826,192.92564 562.81352,191.28631 559.37475,189.56925 C 556.06889,188.29327 552.83944,186.70276 549.60312,185.16327 C 546.38166,183.54064 543.21485,181.95161 539.94767,180.48836 C 536.14364,178.79688 532.23356,177.64572 528.37614,176.33796 C 524.23682,174.72229 520.04559,173.46936 515.87899,172.03374 C 511.40506,170.33581 506.89816,169.69038 502.40846,169.06659 C 497.52634,168.17692 492.74866,167.98369 487.98694,167.92505 C 483.32185,168.02098 478.73039,168.39428 474.13022,168.72533 C 469.26209,169.09358 464.39974,169.48107 459.5341,169.8576 C 455.41201,169.97721 451.77971,171.30682 448.07079,172.40207 C 444.33404,173.75329 441.43408,176.15983 438.38788,178.42693 C 424.43107,188.747 456.49326,162.90473 441.67211,175.76615 C 438.34664,178.75504 436.10233,182.59386 433.94594,186.49721 C 431.37128,191.79099 430.62147,197.88121 429.8558,203.9387 C 429.08521,210.67607 430.25512,217.69185 431.56452,224.72264 C 432.40663,231.10327 435.62546,235.39329 440.39636,240.24917 C 447.07406,245.80398 454.31076,249.39589 462.1421,251.95312 C 473.90505,254.9569 485.61563,256.26176 497.17641,256.75469 C 509.06,257.23441 520.49302,256.3986 531.31945,253.61998 C 555.742,239.22944 526.10113,264.49215 536.28565,250.25586 C 539.14752,244.34471 538.09825,240.75564 533.4443,234.87792 C 524.80831,226.76398 515.33759,233.72897 504.63683,231.10223 C 495.53207,228.93652 462.85472,227.88011 454.46724,229.01958 L 467.19878,192.57994 C 475.8191,191.90353 511.60547,194.65742 520.76211,196.95294 C 531.89182,199.88784 538.96998,214.75127 548.07114,223.02365 C 553.40468,229.52898 651.28478,225.25183 648.4587,232.18733 C 640.89174,244.51094 590.51855,314.15048 540.25309,295.72974 C 529.23386,298.2323 490.48772,303.24723 478.52709,302.6979 C 466.76838,302.06782 421.98947,292.08276 410.05467,288.95007 C 401.86945,286.24215 389.99105,340.90167 350.17013,257.95378 C 357.87018,209.86187 416.9231,242.33895 415.93439,235.42519 C 414.56265,228.23871 413.23818,221.03834 413.87229,214.11272 C 414.47623,207.89684 415.11593,201.69144 417.39253,196.12074 C 419.3944,192.06243 421.48512,188.06672 424.71051,184.91901 C 432.74918,177.38589 441.42446,170.42403 450.5389,164.04973 C 453.70313,161.80201 456.84828,159.54988 460.78854,158.40466 C 464.61678,157.42818 468.38425,156.28926 472.58194,156.24245 C 477.44077,155.87221 482.30103,155.50664 487.16022,155.13751 C 491.80824,154.80054 496.44567,154.39867 501.19215,154.43047 C 506.02664,154.61528 510.87339,154.98254 515.79156,155.79119 C 520.41607,156.54235 525.03941,157.3019 529.63492,159.05264 C 533.78442,160.46829 537.93785,161.84309 542.08207,163.29307 C 546.02219,164.67649 549.99269,165.95173 553.8882,167.60999 C 557.16014,169.18813 560.4018,170.82758 563.66978,172.43874 C 566.91923,173.92609 570.16332,175.43742 573.43277,176.85347 C 576.82767,178.52572 580.21557,180.21581 583.63704,181.80403 C 586.15555,182.03829 588.45439,182.93913 590.52748,181.45446 C 570.59888,197.56191 577.51227,196.96609 578.5009,187.56654 C 577.58054,183.19711 576.69313,178.84417 575.12854,174.4811 C 573.80673,170.02858 572.51436,165.57187 571.02914,161.1338 C 569.20177,156.14483 567.28343,151.16283 564.47878,146.40378 C 561.55867,141.67508 558.44161,137.15213 554.50246,133.01451 C 550.25512,128.70857 545.8592,124.59928 541.15013,120.7843 C 536.27785,116.65763 531.35664,112.83252 525.55587,110.34356 C 519.15845,107.78358 512.76531,105.32793 506.22381,103.70641 C 497.23969,101.51087 488.28082,99.599011 479.41029,99.464395 C 469.28407,99.027009 455.16077,121.05522 445.37794,121.98687 C 436.01008,122.74165 416.61856,134.88291 407.44994,136.24693 C 400.59641,137.52041 368.00535,165.91019 361.80567,168.56211 L 370.26152,58.807495 z "
       inkscape:transform-center-y="17.458832"
       inkscape:transform-center-x="-12.230662"
       sodipodi:nodetypes="ccccccccccccccccccccccccccccccccccccccccccccccccccccccccccccccccccccccccccc" />
    <path
       sodipodi:type="star"
       style="opacity:1;fill:#f1b58d;fill-opacity:1;stroke:#000000;stroke-width:9;stroke-linecap:butt;stroke-linejoin:miter;stroke-miterlimit:4.0999999;stroke-dasharray:none;stroke-dashoffset:0;stroke-opacity:1"
       id="path3429"
       sodipodi:sides="5"
       sodipodi:cx="128.57143"
       sodipodi:cy="608.07648"
       sodipodi:r1="73.734215"
       sodipodi:r2="119.80611"
       sodipodi:arg1="0.95054684"
       sodipodi:arg2="0.77708768"
       inkscape:flatsided="false"
       inkscape:rounded="0"
       inkscape:randomized="0"
       d="M 171.42857,668.07648 L 213.98823,692.08524 L 84.751622,667.37706 L 75.069588,715.27282 L 58.632156,584.72625 L 10.088666,590.3187 L 129.16638,534.34466 L 108.84689,489.90522 L 198.8784,585.85793 L 234.86375,552.8004 L 171.42857,668.07648 z "
       transform="translate(77.142857,80)" />
    <path
       style="fill:none;fill-rule:evenodd;stroke:#000000;stroke-width:1.28335953px;stroke-linecap:butt;stroke-linejoin:miter;stroke-opacity:1"
       d="M 370.45892,632.20838 C 391.35281,551.31463 542.51089,555.93315 593.06606,577.49779 C 742.18896,641.10715 615.99539,663.9507 537.74116,679.16637 C 512.02904,684.16581 418.01795,672.39251 404.03761,749.90218 C 399.52045,774.94619 436.15421,788.61362 455.7725,799.36336"
       id="path3433"
       sodipodi:nodetypes="csssc" />
    <path
       style="fill:none;fill-rule:evenodd;stroke:#000000;stroke-width:1px;stroke-linecap:butt;stroke-linejoin:miter;stroke-opacity:1"
       d="M 207.14286,245.21933 C 193.7085,239.62785 174.26525,239.73972 155.71429,236.6479 C 144.93057,234.85061 126.72632,236.6479 115.71429,236.6479 C 93.18465,236.6479 69.282807,234.91445 48.571429,243.79075 C 31.607886,251.06084 22.54135,261.5652 14.285714,278.07647 C 9.9286757,286.79055 11.845942,308.91121 60,305.21932 C 143.97481,293.75166 171.78572,272.36218 238.57143,279.50504 C 305.35715,286.64789 314.64285,295.93361 327.14285,333.79075 C 339.64285,371.6479 323.12536,425.17462 288.57143,430.93361 C 259.07225,435.85014 244.28571,415.82019 244.28571,389.50504 C 244.28571,386.6479 244.28571,383.79075 244.28571,380.93361 C 244.28571,371.60779 229.49549,371.16463 222.85714,369.50504 C 207.82094,365.74599 190.58939,380.17443 185.71429,392.36218 C 180.02195,406.59302 206.8729,417.80651 214.28571,425.21933 C 226.92054,437.85415 201.95875,446.87249 191.42857,449.50504 C 175.45791,453.4977 157.52469,449.50504 141.42857,449.50504 C 103.26081,449.50504 88.120525,472.39409 67.142857,502.36218 C 34.037896,549.65498 77.472611,603.70289 115.71429,626.6479 C 172.66765,660.81992 236.84657,658.07647 301.42857,658.07647 C 380.08211,658.07647 443.79006,636.37386 510,596.6479 C 552.85398,570.93551 552.93485,531.32215 544.28571,488.07647 C 538.78519,460.57384 525.82657,441.01782 502.85714,423.79075 C 496.31988,418.88781 474.26018,422.3724 467.14286,425.21933 C 464.34657,426.33784 461.42857,427.12409 458.57143,428.07647 C 438.84761,434.65107 435.84013,444.16829 441.42857,460.93361 C 446.04255,474.77553 471.34374,493.64936 480,508.07647 C 490.57865,525.70754 475.62426,547.70689 461.42857,553.79075 C 416.93082,572.86122 356.98685,555.21933 310,555.21933"
       id="path3435" />
  </g>
</svg>
